<svg xmlns="http://www.w3.org/2000/svg" width="800" height="800" viewBox="0 0 113.22 113.22" xml:space="preserve"><circle cx="26.044" cy="14.601" r="11.857"/><path d="m56.834 28.996-19.11.313-13.24-1.892a10.817 10.817 0 0 0-3.73-1.104c-5.975-.63-11.322 3.698-11.953 9.668L6.392 58.767a10.815 10.815 0 0 0 .513 4.599 5.413 5.413 0 0 0-.023 1.906l2.264 13.435-8.958 26.227c-.585 1.732.234 3.669 1.94 4.42a3.567 3.567 0 0 0 4.703-1.829l11.737-26.667a4.037 4.037 0 0 0 .324-1.936l-.033-.408-.551-6.74 4.18 8.841-.271 24.087a3.583 3.583 0 0 0 3.197 3.59 3.57 3.57 0 0 0 3.922-3.178l2.649-25.264a3.83 3.83 0 0 0-.207-1.687l-.149-.416-4.71-12.971a10.897 10.897 0 0 0 1.095-3.726l1.029-9.748 2.076 1.82.344.303a3.81 3.81 0 0 0 4.183.555l11.752-5.75a3.3 3.3 0 0 0-2.427-6.118l-9.699 2.999-5.043-5.026.193-1.819c.021-.217.024-.431.035-.646l6.616.244.455.017c.07.002.144-.001.214-.009l19.532-2.306c1.652-.202 2.937-1.625 2.908-3.327a3.297 3.297 0 0 0-3.348-3.243z"/><circle cx="90.088" cy="16.692" r="11.857"/><path d="m113.115 106.052-6.166-25.034 2.302-13.656c.024-.147.046-.31.059-.461.04-.496.007-.979-.08-1.446.482-1.436.683-2.992.512-4.598l-2.407-22.786c-.631-5.97-5.979-10.297-11.953-9.668a10.81 10.81 0 0 0-6.903 3.519l-5.403 1.43-9.93-6.207a3.3 3.3 0 0 0-3.881 5.318l10.592 8.958a3.632 3.632 0 0 0 1.615.758l-2.135 1.438-10.527-6.432a3.299 3.299 0 0 0-3.795 5.379l11.959 9.677a3.908 3.908 0 0 0 4.417.336l.354-.208 4.935-2.882 1.443 13.653a10.815 10.815 0 0 0 1.094 3.725l-4.709 12.971-.156.43a3.499 3.499 0 0 0-.205 1.203l.144 25.382c.016 1.815 1.409 3.373 3.256 3.536a3.57 3.57 0 0 0 3.869-3.243l2.129-24.22 4.282-9.062-.55 6.74-.036.44c-.039.5.021 1.017.197 1.521l8.844 25.512c.603 1.716 2.426 2.741 4.228 2.298a3.57 3.57 0 0 0 2.605-4.321z"/></svg>