<svg version="1.1" id="_x32_" xmlns="http://www.w3.org/2000/svg" viewBox="0 0 512 512" xml:space="preserve"><style>.st0{fill:#000}</style><path class="st0" d="M141.698 141.549H79.077c-8.488 0-15.37 6.882-15.37 15.362V355.09c0 8.479 6.882 15.362 15.37 15.362h62.622c8.489 0 15.371-6.883 15.371-15.362V156.911c0-8.48-6.883-15.362-15.372-15.362zM32.374 189.734H12.803C5.736 189.734 0 195.47 0 202.537v106.925c0 7.068 5.736 12.803 12.803 12.803h19.571c7.067 0 12.803-5.736 12.803-12.803V202.537c0-7.067-5.736-12.803-12.803-12.803zM177.69 228.894h156.62v54.212H177.69zM432.922 141.549h-62.621c-8.488 0-15.371 6.882-15.371 15.362V355.09c0 8.479 6.882 15.362 15.371 15.362h62.621c8.488 0 15.371-6.883 15.371-15.362V156.911c0-8.48-6.882-15.362-15.371-15.362zM499.197 189.734h-19.57c-7.068 0-12.803 5.736-12.803 12.803v106.925c0 7.068 5.736 12.803 12.803 12.803h19.57c7.068 0 12.803-5.736 12.803-12.803V202.537c0-7.067-5.736-12.803-12.803-12.803z"/></svg>